<?xml version="1.0" encoding="UTF-8"?>
<svg version="1.1" xmlns="http://www.w3.org/2000/svg" width="512" height="512">
<path d="M0 0 C5.40497738 4.25729208 10.3964597 8.87563211 15.28515625 13.70703125 C15.83743896 14.24996826 16.38972168 14.79290527 16.95874023 15.35229492 C19.88988436 18.30704435 22.59246907 21.09870018 24.28515625 24.95703125 C24.22020446 28.22460594 23.63278627 29.5556284 21.4921875 32.02734375 C20.30689453 33.04441406 20.30689453 33.04441406 19.09765625 34.08203125 C18.19660156 34.85546875 17.29554688 35.62890625 16.3671875 36.42578125 C7.6030931 43.62366867 -1.24374898 50.70143162 -10.71484375 56.95703125 C-11.67390625 57.59125 -12.63296875 58.22546875 -13.62109375 58.87890625 C-43.86084177 78.1904285 -80.63521484 87.46468933 -116.25 80.05859375 C-130.70115459 76.66099705 -143.92879345 71.46457894 -156.71484375 63.95703125 C-157.33383545 63.6125293 -157.95282715 63.26802734 -158.59057617 62.91308594 C-162.63885403 60.65872193 -165.55871395 58.35594026 -168.71484375 54.95703125 C-169.81507403 53.84894218 -170.91930058 52.74480776 -172.02734375 51.64453125 C-172.91421875 50.75765625 -173.80109375 49.87078125 -174.71484375 48.95703125 C-178.34373054 50.46769905 -180.43427605 52.59300601 -183.08984375 55.45703125 C-193.96830939 66.54408104 -207.41740966 75.50458282 -222.71484375 78.95703125 C-225.71484375 78.95703125 -225.71484375 78.95703125 -227.90234375 76.95703125 C-228.50046875 76.29703125 -229.09859375 75.63703125 -229.71484375 74.95703125 C-227.34788612 69.30263246 -224.75599155 63.77104089 -222.1171875 58.23828125 C-219.51695203 52.15416484 -218.44013303 46.61664609 -218.08984375 40.01953125 C-218.05117187 39.33568359 -218.0125 38.65183594 -217.97265625 37.94726562 C-217.87961963 36.28423612 -217.79620588 34.62067278 -217.71484375 32.95703125 C-218.37484375 32.62703125 -219.03484375 32.29703125 -219.71484375 31.95703125 C-219.89853516 30.68859375 -219.89853516 30.68859375 -220.0859375 29.39453125 C-221.00758444 24.35695789 -223.47114697 20.33274642 -225.91992188 15.87890625 C-228.1187702 11.71183023 -229.19160408 8.8003108 -228.71484375 3.95703125 C-223.60006668 1.47797714 -220.5712514 2.16512542 -215.234375 3.65234375 C-204.27299425 7.71571908 -194.45844326 14.27137617 -185.71484375 21.95703125 C-184.92851562 22.63507813 -184.1421875 23.313125 -183.33203125 24.01171875 C-181.44726643 25.64693283 -179.57518614 27.29415537 -177.71484375 28.95703125 C-177.04839844 28.0134375 -176.38195312 27.06984375 -175.6953125 26.09765625 C-158.94386015 2.6443944 -139.52237704 -15.1332922 -111.71484375 -24.04296875 C-110.49796875 -24.45675781 -109.28109375 -24.87054688 -108.02734375 -25.296875 C-71.61850981 -36.18159931 -29.35146416 -22.08750468 0 0 Z M-61.71484375 -0.04296875 C-69.82683211 8.7027687 -71.47641623 19.6339138 -71.0625 31.11328125 C-70.2891172 39.66394048 -66.56643176 46.71633508 -60.71484375 52.95703125 C-58.04667016 54.93201895 -58.04667016 54.93201895 -55.71484375 55.95703125 C-56.19643378 51.26152842 -57.64847061 47.59216667 -59.6796875 43.3984375 C-62.26089632 37.31068086 -63.0727549 31.79336746 -63.02734375 25.26953125 C-63.02532959 24.48368652 -63.02331543 23.6978418 -63.02124023 22.88818359 C-62.90815806 16.26441242 -61.71345007 10.27386989 -59.71484375 3.95703125 C-59.37202918 2.62610411 -59.03499637 1.29359071 -58.71484375 -0.04296875 C-59.70484375 -0.04296875 -60.69484375 -0.04296875 -61.71484375 -0.04296875 Z M-34.71484375 13.95703125 C-35.90980417 17.46722749 -35.94911136 19.25422841 -34.77734375 22.76953125 C-32.1886327 25.51513388 -30.42718576 25.97952761 -26.72265625 26.21875 C-24.39125499 26.06978719 -24.39125499 26.06978719 -21.71484375 23.89453125 C-19.54820574 21.11469432 -19.54820574 21.11469432 -19.08984375 17.95703125 C-19.93230584 13.9132132 -21.44884356 12.42467584 -24.71484375 9.95703125 C-29.24334114 8.93811934 -31.62297571 10.69339276 -34.71484375 13.95703125 Z M-54.71484375 54.95703125 C-55.04484375 55.61703125 -55.37484375 56.27703125 -55.71484375 56.95703125 C-55.05484375 56.95703125 -54.39484375 56.95703125 -53.71484375 56.95703125 C-54.04484375 56.29703125 -54.37484375 55.63703125 -54.71484375 54.95703125 Z " fill="#034A7C" transform="translate(347.71484375,124.04296875)"/>
<path d="M0 0 C9.69248311 3.31591083 18.26215888 4.07069256 28.5234375 3.62011719 C29.46445312 3.5843457 30.40546875 3.54857422 31.375 3.51171875 C32.21466309 3.46418457 33.05432617 3.41665039 33.91943359 3.36767578 C36.1015625 3.62890625 36.1015625 3.62890625 37.86181641 4.96435547 C39.1015625 6.62890625 39.1015625 6.62890625 39.6640625 9.37890625 C38.85847304 14.0334231 36.66767926 16.61203516 33.1015625 19.62890625 C21.79210941 24.93742505 6.64695247 21.24816582 -4.578125 17.3515625 C-6.94726324 16.47268864 -9.31455195 15.58880802 -11.6796875 14.69921875 C-15.80769165 13.32655718 -19.57401829 12.92208721 -23.8984375 12.62890625 C-24.2284375 12.29890625 -24.5584375 11.96890625 -24.8984375 11.62890625 C-27.84552319 11.52840383 -30.76407552 11.49021053 -33.7109375 11.50390625 C-34.53142578 11.50003906 -35.35191406 11.49617188 -36.19726562 11.4921875 C-37.38932617 11.49412109 -37.38932617 11.49412109 -38.60546875 11.49609375 C-39.3322583 11.49722168 -40.05904785 11.49834961 -40.80786133 11.49951172 C-42.95521897 11.63242069 -44.82897712 12.05640491 -46.8984375 12.62890625 C-48.043125 12.84546875 -48.043125 12.84546875 -49.2109375 13.06640625 C-56.16739609 14.52240921 -62.19984367 17.05034536 -68.5859375 20.06640625 C-88.21266412 29.14331045 -110.3064591 32.61449371 -131.37890625 25.96875 C-137.40055141 23.6763812 -143.2809962 21.11893709 -149.13574219 18.43212891 C-151.51733297 17.34688879 -153.91724645 16.31608196 -156.3359375 15.31640625 C-157.01527344 15.03152344 -157.69460937 14.74664062 -158.39453125 14.453125 C-174.98903057 8.99066111 -190.33053281 11.2222519 -206.51928711 16.8203125 C-209.08416948 17.69203035 -211.66019978 18.51008164 -214.25 19.3046875 C-215.04873535 19.55001221 -215.8474707 19.79533691 -216.67041016 20.0480957 C-221.0204849 21.18208955 -224.46461681 21.18288243 -228.6484375 19.56640625 C-231.75819463 16.88855984 -232.76731778 14.55455705 -233.8984375 10.62890625 C-232.96484375 7.3984375 -232.96484375 7.3984375 -231.8984375 4.62890625 C-230.47917969 4.40847656 -230.47917969 4.40847656 -229.03125 4.18359375 C-221.29905018 2.90000701 -213.99157324 1.15168055 -206.5859375 -1.43359375 C-182.4037551 -9.78508045 -161.53530598 -6.84566328 -138.52368164 3.60473633 C-128.23661978 8.20951098 -117.92740174 11.22667012 -106.5859375 11.06640625 C-105.37538696 11.05178345 -105.37538696 11.05178345 -104.14038086 11.03686523 C-90.87847255 10.65236765 -79.87675237 6.40159628 -67.98657227 0.85351562 C-62.04846377 -1.90995101 -56.34205909 -4.08644767 -49.8984375 -5.37109375 C-48.58359375 -5.70753906 -48.58359375 -5.70753906 -47.2421875 -6.05078125 C-31.6842329 -9.51285356 -14.69721153 -5.2105651 0 0 Z " fill="#44B0D0" transform="translate(353.8984375,219.37109375)"/>
<path d="M0 0 C16.89816199 7.32326554 36.23834976 8.80448536 53.70703125 2.30859375 C57.42106988 0.77552621 61.07131627 -0.87471149 64.71484375 -2.56640625 C83.86667407 -11.42300384 105.93909103 -15.89021338 126.54296875 -8.42578125 C128.54021284 -7.57348686 130.52659632 -6.6951903 132.5 -5.7890625 C135.44682402 -4.54431767 138.2824849 -3.7877415 141.39453125 -3.06640625 C144.83204782 -2.17225454 146.33378488 -1.61610783 149.14453125 0.68359375 C150.82961885 4.39078647 150.4737605 6.54836846 149.39453125 10.43359375 C147.79199596 13.1044859 146.49476989 13.40090724 143.51953125 14.37109375 C136.65231664 15.09243982 129.57324043 11.56240786 123.2265625 9.30859375 C103.18292311 2.53608454 85.62615249 5.9186803 66.95263672 15.08276367 C52.91827898 21.93509104 38.44104643 25.27435987 22.83203125 23.55859375 C21.92517578 23.46707031 21.01832031 23.37554687 20.08398438 23.28125 C17.51843581 23.01706733 14.95684914 22.72719268 12.39453125 22.43359375 C11.16605469 22.30984375 9.93757813 22.18609375 8.671875 22.05859375 C4.89188415 21.33773733 1.96400225 20.01932211 -1.48046875 18.30859375 C-2.79550952 17.67424479 -4.11197542 17.04284362 -5.4296875 16.4140625 C-6.1107959 16.08841309 -6.7919043 15.76276367 -7.49365234 15.42724609 C-26.11713525 6.66452061 -42.88106042 2.64964258 -63.13671875 8.78125 C-66.99610248 9.80105551 -70.67339828 10.28839168 -74.60546875 9.43359375 C-77.23046875 7.37109375 -77.23046875 7.37109375 -78.60546875 4.43359375 C-78.73046875 0.87109375 -78.73046875 0.87109375 -77.60546875 -2.56640625 C-57.16586643 -21.9011652 -21.43855584 -9.31404214 0 0 Z " fill="#45B1D0" transform="translate(218.60546875,258.56640625)"/>
<path d="M0 0 C3.20236477 1.40993882 6.41218848 2.80155666 9.625 4.1875 C10.40029053 4.53248535 11.17558105 4.8774707 11.97436523 5.23291016 C30.42198807 13.18323047 51.75796689 12.59495848 70.34375 5.5625 C73.70365568 4.12664287 76.95344368 2.56675394 80.22314453 0.94165039 C88.95221084 -3.38524894 97.25486948 -6.09908299 107 -7 C107.33 -6.67 107.66 -6.34 108 -6 C111.11589213 -5.40989739 114.23148179 -4.85515554 117.36523438 -4.36914062 C121.76168027 -3.58267963 124.3561341 -2.67203597 127 1 C127.83539199 4.42708053 127.67684505 7.83432242 125.875 10.9375 C121.1195735 13.63224168 116.40885419 12.91207992 111.25 11.9375 C100.38643085 10.31590252 93.65344645 12.96483382 84.17553711 17.890625 C70.70711956 24.85350095 57.48516796 27.86213899 42.4375 28.75 C41.56279053 28.80704102 40.68808105 28.86408203 39.78686523 28.92285156 C33.56017979 29.21949943 28.04964639 28.43496733 22 27 C20.97390625 26.80019531 19.9478125 26.60039062 18.890625 26.39453125 C11.86328035 24.84560469 5.95551195 22.16374491 -0.41015625 18.84375 C-7.64734719 15.07574028 -15.14796191 11.39959328 -23.1875 9.8125 C-26.96701664 9.00702924 -27.72195952 8.81882161 -30 6 C-31.06479227 2.50139683 -31.26353437 0.68208897 -29.9375 -2.75 C-22.19801147 -11.73779313 -8.66713768 -3.83188777 0 0 Z " fill="#46B1D0" transform="translate(207,287)"/>
<path d="M0 0 C1.91015625 0.1328125 1.91015625 0.1328125 3.91015625 1.1328125 C4.90015625 0.8028125 5.89015625 0.4728125 6.91015625 0.1328125 C14.14460601 -0.32651764 14.14460601 -0.32651764 17.41015625 1.6328125 C17.90515625 2.1278125 18.40015625 2.6228125 18.91015625 3.1328125 C19.50828125 2.8234375 20.10640625 2.5140625 20.72265625 2.1953125 C25.06202396 0.08761961 29.13962984 -0.52872534 33.91015625 0.1328125 C37.05745393 1.91171989 38.49021304 3.24626573 40.03515625 6.5078125 C41.32293972 11.84291543 41.11884154 17.04251928 41.03515625 22.5078125 C41.02613281 23.62542969 41.01710938 24.74304688 41.0078125 25.89453125 C40.98433971 28.64084712 40.95150353 31.38671722 40.91015625 34.1328125 C37.95351106 35.6111351 35.16785888 35.19314033 31.91015625 35.1328125 C30.74746727 32.80743454 30.80821917 31.50555168 30.84765625 28.921875 C30.85539062 28.08914063 30.863125 27.25640625 30.87109375 26.3984375 C30.89701987 24.64583162 30.9230605 22.89322743 30.94921875 21.140625 C30.95695312 20.3053125 30.9646875 19.47 30.97265625 18.609375 C30.98425781 17.84705566 30.99585938 17.08473633 31.0078125 16.29931641 C30.90936246 14.11520226 30.51456156 12.22859981 29.91015625 10.1328125 C27.93015625 10.1328125 25.95015625 10.1328125 23.91015625 10.1328125 C22.67955204 12.59402091 22.70438395 14.39058116 22.59375 17.140625 C22.55185547 18.12675781 22.50996094 19.11289062 22.46679688 20.12890625 C22.42748047 21.16144531 22.38816406 22.19398438 22.34765625 23.2578125 C22.30447266 24.29808594 22.26128906 25.33835937 22.21679688 26.41015625 C22.11052745 28.98423778 22.00849042 31.55841758 21.91015625 34.1328125 C18.94015625 34.1328125 15.97015625 34.1328125 12.91015625 34.1328125 C12.84957031 32.65167969 12.78898437 31.17054688 12.7265625 29.64453125 C12.6421531 27.70311516 12.5575053 25.76170942 12.47265625 23.8203125 C12.43333984 22.84384766 12.39402344 21.86738281 12.35351562 20.86132812 C12.31162109 19.92353516 12.26972656 18.98574219 12.2265625 18.01953125 C12.18990479 17.15545654 12.15324707 16.29138184 12.11547852 15.40112305 C11.98268271 12.9680299 11.98268271 12.9680299 10.91015625 10.1328125 C7.91015625 8.79947917 7.91015625 8.79947917 4.91015625 10.1328125 C3.65177068 12.64958363 3.70196652 14.54574538 3.59375 17.359375 C3.55185547 18.390625 3.50996094 19.421875 3.46679688 20.484375 C3.40782227 22.10472656 3.40782227 22.10472656 3.34765625 23.7578125 C3.30447266 24.84578125 3.26128906 25.93375 3.21679688 27.0546875 C3.11051198 29.7472382 3.00981121 32.44000826 2.91015625 35.1328125 C-0.38984375 34.8028125 -3.68984375 34.4728125 -7.08984375 34.1328125 C-7.11449663 29.45141996 -7.13268114 24.77006491 -7.14477539 20.08862305 C-7.14981532 18.49486636 -7.15664725 16.90111431 -7.1652832 15.30737305 C-7.17736374 13.02130997 -7.1830753 10.73530783 -7.1875 8.44921875 C-7.19266129 7.73254532 -7.19782257 7.01587189 -7.20314026 6.27748108 C-7.20333638 4.56217578 -7.15176382 2.84699984 -7.08984375 1.1328125 C-5.19099279 -0.76603846 -2.51736472 0.00913744 0 0 Z " fill="#074775" transform="translate(443.08984375,350.8671875)"/>
<path d="M0 0 C3.3 0 6.6 0 10 0 C10 5.61 10 11.22 10 17 C15.61 17 21.22 17 27 17 C27 11.39 27 5.78 27 0 C29.97 0 32.94 0 36 0 C37.08254642 9.58948603 37.11596818 19.05414861 37.0625 28.6875 C37.05747247 30.27538921 37.05291179 31.86327996 37.04882812 33.45117188 C37.03792755 37.30082025 37.02073283 41.15039253 37 45 C33.04 45 29.08 45 25 45 C25.99 44.505 25.99 44.505 27 44 C26.9278125 42.86820312 26.855625 41.73640625 26.78125 40.5703125 C26.68746717 39.08854374 26.59371896 37.6067728 26.5 36.125 C26.45230469 35.37863281 26.40460938 34.63226563 26.35546875 33.86328125 C26 28.2265625 26 28.2265625 26 26 C20.72 26 15.44 26 10 26 C10 32.6 10 39.2 10 46 C6.7 45.67 3.4 45.34 0 45 C0 30.15 0 15.3 0 0 Z " fill="#0C4975" transform="translate(39,340)"/>
<path d="M0 0 C3.63 0 7.26 0 11 0 C12.47688251 3.8729897 13.95178472 7.74672664 15.42504883 11.62109375 C15.9238868 12.93216068 16.42321607 14.24304081 16.9230957 15.55371094 C19.62117427 22.62903481 22.28959862 29.71428164 24.86328125 36.8359375 C25.27489502 37.97337402 25.68650879 39.11081055 26.1105957 40.28271484 C27 43 27 43 27 45 C23.7 45 20.4 45 17 45 C15.515 40.545 15.515 40.545 14 36 C9.05 36 4.1 36 -1 36 C-1.33 37.32 -1.66 38.64 -2 40 C-2.66 40 -3.32 40 -4 40 C-4.495 42.475 -4.495 42.475 -5 45 C-9.95 45.495 -9.95 45.495 -15 46 C-14.40300595 40.2290575 -12.84119536 35.21576096 -10.83984375 29.78515625 C-10.53051407 28.92941513 -10.22118439 28.07367401 -9.90248108 27.19200134 C-8.92046406 24.47982807 -7.92914476 21.77116598 -6.9375 19.0625 C-6.26695915 17.21571942 -5.5970308 15.36871632 -4.92773438 13.52148438 C-3.29223235 9.01171731 -1.64838335 4.50507387 0 0 Z M5 13 C3.68 17.29 2.36 21.58 1 26 C3.97 26 6.94 26 10 26 C9.40895235 21.15340923 8.02055843 17.39251833 6 13 C5.67 13 5.34 13 5 13 Z " fill="#0D4B76" transform="translate(221,340)"/>
<path d="M0 0 C3.3 0 6.6 0 10 0 C10.33 4.95 10.66 9.9 11 15 C11.66 14.67 12.32 14.34 13 14 C17.18618599 13.57233463 20.88240621 13.55296248 24.8125 15.125 C28.93566087 18.65913789 31.49450071 22.56588268 32 28 C32.09474609 29.00546875 32.09474609 29.00546875 32.19140625 30.03125 C32.5014549 35.87216644 31.44866759 40.2257508 28 45 C24.39143466 48.43672889 21.72195768 49.23409333 16.875 49.3125 C14.52897006 49.24306921 12.45239038 49.13023359 10.1953125 48.48046875 C6.87177145 47.75307453 3.4022092 48 0 48 C0 32.16 0 16.32 0 0 Z M11.86328125 23.0546875 C9.67993837 24.95468344 9.67993837 24.95468344 9.5390625 28.28515625 C9.56742188 29.53167969 9.59578125 30.77820313 9.625 32.0625 C9.63789062 33.31160156 9.65078125 34.56070313 9.6640625 35.84765625 C9.67634271 39.09513947 9.67634271 39.09513947 12 41 C14.9149255 41.5838196 14.9149255 41.5838196 18 41 C20.64805967 38.8397408 21.80854884 37.20893876 22.34765625 33.8046875 C22.48138708 30.28117079 22.33580113 27.70694974 20.8125 24.5 C17.81487262 22.01920493 15.42873825 21.29477271 11.86328125 23.0546875 Z " fill="#0C4A76" transform="translate(116,337)"/>
<path d="M0 0 C2.3046875 1.0234375 2.3046875 1.0234375 4 2 C4 1.34 4 0.68 4 0 C6.64 0 9.28 0 12 0 C12 15.84 12 31.68 12 48 C8 49 8 49 3 49 C3 43.72 3 38.44 3 33 C1.68 33.66 0.36 34.32 -1 35 C-5.2009067 35.57865799 -8.8933531 35.46725091 -12.8125 33.8125 C-16.2596633 30.95627898 -18.57791895 28.26624316 -20 24 C-20.66739803 16.61485787 -20.65969588 10.05760464 -16 4 C-11.23341295 -0.53960672 -6.29890569 -0.89390411 0 0 Z M-7.6875 10 C-10.3286788 13.42639411 -10.57624742 14.90293185 -10.30078125 19.06640625 C-9.9033736 21.62116974 -9.23855721 23.72931177 -8 26 C-5.17116253 27.41441874 -3.12623255 27.31900332 0 27 C2.76312206 24.15235891 3.45161808 21.98748338 3.5 18.0625 C3.38968644 14.13185352 3.12830461 13.17338461 0.6875 9.875 C-2.989243 7.30983046 -4.08674279 7.32036672 -7.6875 10 Z " fill="#0C4A77" transform="translate(268,351)"/>
<path d="M0 0 C3.3 0 6.6 0 10 0 C12.31 6.6 14.62 13.2 17 20 C19.33405449 14.28559073 21.53425699 8.60339539 23.38671875 2.71484375 C24 1 24 1 25 0 C28.00331018 -0.14193337 30.99217134 -0.04236378 34 0 C33.67 2.97 33.34 5.94 33 9 C32.34 9 31.68 9 31 9 C30.87471924 9.87398438 30.74943848 10.74796875 30.62036133 11.6484375 C29.63021067 16.99782287 27.60379658 21.92258058 25.6875 27 C25.29626953 28.06734375 24.90503906 29.1346875 24.50195312 30.234375 C19.28419503 44.1483966 19.28419503 44.1483966 13 48 C9.52674819 49.1577506 6.63932552 49.06866652 3 49 C3 47.35 3 45.7 3 44 C2.34 43.67 1.68 43.34 1 43 C3 41 3 41 5.4375 40.125 C8.37079123 38.83721361 9.35823096 37.70891891 11 35 C11.33 34.01 11.66 33.02 12 32 C11.34 31.67 10.68 31.34 10 31 C9.17797852 29.17749023 9.17797852 29.17749023 8.37890625 26.80859375 C8.08306641 25.94556641 7.78722656 25.08253906 7.48242188 24.19335938 C7.17884766 23.28392578 6.87527344 22.37449219 6.5625 21.4375 C5.96047274 19.66507995 5.35761765 17.89294086 4.75390625 16.12109375 C4.46273926 15.2585498 4.17157227 14.39600586 3.87158203 13.50732422 C3.05598325 11.16104985 2.17937257 8.84928657 1.27734375 6.53515625 C0 3 0 3 0 0 Z " fill="#0B4A76" transform="translate(79,351)"/>
<path d="M0 0 C0.721875 0.00257813 1.44375 0.00515625 2.1875 0.0078125 C2.909375 0.00523437 3.63125 0.00265625 4.375 0 C6.1875 0.1328125 6.1875 0.1328125 7.1875 1.1328125 C7.32070298 2.81574135 7.39088841 4.50375439 7.43359375 6.19140625 C7.46646484 7.21685547 7.49933594 8.24230469 7.53320312 9.29882812 C7.59428854 11.47580831 7.65159437 13.65289792 7.70507812 15.83007812 C7.75631836 17.37018555 7.75631836 17.37018555 7.80859375 18.94140625 C7.8336499 19.88814209 7.85870605 20.83487793 7.88452148 21.81030273 C7.9724499 24.32422674 7.9724499 24.32422674 10.1875 26.1328125 C12.79030568 25.81239853 12.79030568 25.81239853 15.1875 25.1328125 C16.5485107 19.83647629 16.21154057 14.61278308 16.06054688 9.1953125 C15.97489677 3.45171734 15.97489677 3.45171734 18.1875 0.1328125 C20.1328125 -0.16015625 20.1328125 -0.16015625 22.3125 -0.0546875 C23.59125 0.0071875 24.87 0.0690625 26.1875 0.1328125 C27.37567968 3.86591683 27.30112739 7.40772895 27.28515625 11.3046875 C27.2837413 11.9871051 27.28232635 12.66952271 27.28086853 13.37261963 C27.27529084 15.54272934 27.26274254 17.7127342 27.25 19.8828125 C27.24498211 21.35807142 27.24041971 22.83333197 27.23632812 24.30859375 C27.22532875 27.91670048 27.20807953 31.52474625 27.1875 35.1328125 C26.34445312 35.04902344 25.50140625 34.96523438 24.6328125 34.87890625 C23.53710938 34.77707031 22.44140625 34.67523438 21.3125 34.5703125 C20.22195313 34.46589844 19.13140625 34.36148438 18.0078125 34.25390625 C15.23597977 33.90641846 15.23597977 33.90641846 13.1875 35.1328125 C8.79829821 35.65882686 5.2728591 35.69908681 1.3125 33.6328125 C-4.37486543 26.94179435 -4.14337558 20.00840924 -3.5625 11.6953125 C-3.50964844 10.69048828 -3.45679688 9.68566406 -3.40234375 8.65039062 C-2.91175245 0.21336117 -2.91175245 0.21336117 0 0 Z " fill="#0F4C78" transform="translate(287.8125,350.8671875)"/>
<path d="M0 0 C8.91 0 17.82 0 27 0 C27 7 27 7 26 9 C20.39 9 14.78 9 9 9 C9.33 11.64 9.66 14.28 10 17 C13.24388943 17.919102 16.39351063 18.28279255 19.75 18.5625 C20.73484375 18.64628906 21.7196875 18.73007812 22.734375 18.81640625 C23.48203125 18.87699219 24.2296875 18.93757813 25 19 C24.4140625 25.15234375 24.4140625 25.15234375 24 27 C21.23547967 28.38226016 18.9538637 28.09525387 15.875 28.0625 C12.966875 28.0315625 12.966875 28.0315625 10 28 C9.67 33.94 9.34 39.88 9 46 C6.03 46 3.06 46 0 46 C-2 44 -2 44 -2.15112305 40.37988281 C-2.11548246 38.82067842 -2.06818781 37.26171405 -2.01171875 35.703125 C-1.98906448 34.87673523 -1.96641022 34.05034546 -1.94306946 33.19891357 C-1.89305167 31.44691802 -1.83807729 29.6950581 -1.77856445 27.94335938 C-1.68834347 25.27494688 -1.61331619 22.60645197 -1.54101562 19.9375 C-1.4904838 18.23434805 -1.4390793 16.53122171 -1.38671875 14.828125 C-1.36373215 14.03416321 -1.34074554 13.24020142 -1.31706238 12.42218018 C-1.29066177 11.66830017 -1.26426117 10.91442017 -1.23706055 10.13769531 C-1.21548386 9.48198547 -1.19390717 8.82627563 -1.17167664 8.1506958 C-0.95326895 5.41457221 -0.45124675 2.70748049 0 0 Z " fill="#0B4977" transform="translate(354,340)"/>
<path d="M0 0 C3.51372391 3.33803771 5.30895616 6.17701514 5.73779297 11.11083984 C5.79507059 14.32903098 5.76140719 17.53219459 5.6875 20.75 C5.66719727 22.42642578 5.66719727 22.42642578 5.64648438 24.13671875 C5.61127164 26.88331211 5.56202096 29.62890289 5.5 32.375 C1.5 32.375 -2.5 32.375 -6.5 32.375 C-7.49 32.87 -7.49 32.87 -8.5 33.375 C-10.5234375 33.54296875 -10.5234375 33.54296875 -12.875 33.5625 C-13.64585937 33.57667969 -14.41671875 33.59085937 -15.2109375 33.60546875 C-17.7903761 33.34576418 -19.32789782 32.78129693 -21.5 31.375 C-23.94393477 27.30177538 -24.91090341 24.8038304 -23.875 20.125 C-21.9825784 14.96385017 -21.9825784 14.96385017 -19.5 13.375 C-18.51 13.375 -17.52 13.375 -16.5 13.375 C-16.17 12.715 -15.84 12.055 -15.5 11.375 C-12.2 11.375 -8.9 11.375 -5.5 11.375 C-6.16 10.055 -6.82 8.735 -7.5 7.375 C-8.35464844 7.45878906 -9.20929688 7.54257812 -10.08984375 7.62890625 C-11.19457031 7.73074219 -12.29929687 7.83257812 -13.4375 7.9375 C-15.09072266 8.09412109 -15.09072266 8.09412109 -16.77734375 8.25390625 C-18.12505859 8.31384766 -18.12505859 8.31384766 -19.5 8.375 C-20.5 7.375 -20.5 7.375 -20.5625 3.8125 C-20.541875 2.678125 -20.52125 1.54375 -20.5 0.375 C-13.87312046 -2.49067764 -6.58307162 -3.05642611 0 0 Z M-14.5 20.375 C-14.17958603 22.97780568 -14.17958603 22.97780568 -13.5 25.375 C-11.11888932 26.22539667 -9.78649422 26.44866994 -7.3125 25.8125 C-5.17031903 24.41707762 -5.17031903 24.41707762 -4.75 21.25 C-4.6675 20.30125 -4.585 19.3525 -4.5 18.375 C-10.08664846 17.77078469 -10.08664846 17.77078469 -14.5 20.375 Z " fill="#0D4A76" transform="translate(342.5,352.625)"/>
<path d="M0 0 C3.14456971 2.90267973 4.27681762 4.81837655 4.75634766 9.09082031 C4.78776855 10.15913086 4.81918945 11.22744141 4.8515625 12.328125 C4.89023437 13.48828125 4.92890625 14.6484375 4.96875 15.84375 C4.9996875 17.0503125 5.030625 18.256875 5.0625 19.5 C5.10117187 20.72203125 5.13984375 21.9440625 5.1796875 23.203125 C5.27392108 26.2185994 5.35953455 29.23406828 5.4375 32.25 C0.9825 32.745 0.9825 32.745 -3.5625 33.25 C-3.8925 32.59 -4.2225 31.93 -4.5625 31.25 C-5.13097656 31.57226562 -5.69945312 31.89453125 -6.28515625 32.2265625 C-9.99112583 33.89202396 -13.57867266 33.8454475 -17.5625 33.25 C-20.625 31.375 -20.625 31.375 -22.5625 29.25 C-22.5625 28.59 -22.5625 27.93 -22.5625 27.25 C-23.2225 26.92 -23.8825 26.59 -24.5625 26.25 C-24.33332032 24.64272673 -24.07829198 23.03912584 -23.8125 21.4375 C-23.60367187 20.09751953 -23.60367187 20.09751953 -23.390625 18.73046875 C-22.38388544 15.71499885 -21.28582087 14.81435035 -18.5625 13.25 C-17.9025 13.25 -17.2425 13.25 -16.5625 13.25 C-16.2325 12.59 -15.9025 11.93 -15.5625 11.25 C-11.9325 11.58 -8.3025 11.91 -4.5625 12.25 C-5.5525 10.6 -6.5425 8.95 -7.5625 7.25 C-9.00041516 7.39168137 -10.4378237 7.53851043 -11.875 7.6875 C-12.67550781 7.76871094 -13.47601563 7.84992188 -14.30078125 7.93359375 C-16.72337179 8.20265693 -16.72337179 8.20265693 -19.5625 9.25 C-20.5625 8.25 -20.5625 8.25 -20.66015625 6.40234375 C-20.62760417 4.3515625 -20.59505208 2.30078125 -20.5625 0.25 C-13.8904791 -2.63519823 -6.56426718 -3.2245523 0 0 Z M-13.5625 19.5 C-14.79272773 21.23720957 -14.79272773 21.23720957 -14.25 23.4375 C-14.023125 24.035625 -13.79625 24.63375 -13.5625 25.25 C-11.18138932 26.10039667 -9.84899422 26.32366994 -7.375 25.6875 C-5.23281903 24.29207762 -5.23281903 24.29207762 -4.8125 21.125 C-4.73 20.17625 -4.6475 19.2275 -4.5625 18.25 C-9.28665328 17.85124727 -9.28665328 17.85124727 -13.5625 19.5 Z " fill="#0C4A76" transform="translate(404.5625,352.75)"/>
<path d="M0 0 C2.92964491 2.07218786 3.97812612 3.61019814 5.5625 6.8125 C5.99487305 9.7668457 5.99487305 9.7668457 6.07421875 12.98828125 C6.12739258 14.72368164 6.12739258 14.72368164 6.18164062 16.49414062 C6.20419922 17.69232422 6.22675781 18.89050781 6.25 20.125 C6.30124023 21.9512793 6.30124023 21.9512793 6.35351562 23.81445312 C6.43584817 26.81371014 6.50504921 29.81268014 6.5625 32.8125 C3.46476756 33.65312397 0.77917249 33.90185201 -2.4375 33.8125 C-2.7675 33.1525 -3.0975 32.4925 -3.4375 31.8125 C-3.953125 32.121875 -4.46875 32.43125 -5 32.75 C-8.21632172 34.15198639 -10.93212379 34.62800652 -14.4375 34.8125 C-18.08597425 33.23702248 -20.65068386 31.38613228 -22.4375 27.8125 C-22.9682127 24.70403987 -23.03570568 21.91430721 -22.4375 18.8125 C-19.86174147 15.44970414 -17.32383744 13.4199006 -13.4375 11.8125 C-11.078125 11.6171875 -11.078125 11.6171875 -8.6875 11.6875 C-7.88828125 11.70554687 -7.0890625 11.72359375 -6.265625 11.7421875 C-5.66234375 11.76539063 -5.0590625 11.78859375 -4.4375 11.8125 C-5.0975 10.4925 -5.7575 9.1725 -6.4375 7.8125 C-12.8725 8.3075 -12.8725 8.3075 -19.4375 8.8125 C-19.4375 6.1725 -19.4375 3.5325 -19.4375 0.8125 C-13.02336345 -1.88818907 -6.57000533 -2.26963821 0 0 Z M-13.4375 20.8125 C-13.1075 22.4625 -12.7775 24.1125 -12.4375 25.8125 C-9.42481243 26.73304342 -8.01020838 27.09111489 -5.125 25.6875 C-3.17550715 23.89674721 -3.17550715 23.89674721 -3.1875 21.125 C-3.31125 19.9803125 -3.31125 19.9803125 -3.4375 18.8125 C-8.75920494 18.51687633 -8.75920494 18.51687633 -13.4375 20.8125 Z " fill="#0A4976" transform="translate(173.4375,352.1875)"/>
<path d="M0 0 C0 2.31 0 4.62 0 7 C1.299375 6.979375 2.59875 6.95875 3.9375 6.9375 C5.29165633 6.91600546 6.64756083 6.92851801 8 7 C9 8 9 8 9.09765625 9.84765625 C9.06510417 11.8984375 9.03255208 13.94921875 9 16 C6.03 16 3.06 16 0 16 C0 21.28 0 26.56 0 32 C0.66 32 1.32 32 2 32 C2 32.66 2 33.32 2 34 C4.97 33.505 4.97 33.505 8 33 C8 35.64 8 38.28 8 41 C5.43435275 42.28282363 3.48966931 42.20391953 0.625 42.25 C-0.33148438 42.27578125 -1.28796875 42.3015625 -2.2734375 42.328125 C-5.50740901 41.93893645 -6.66892081 41.2448445 -9 39 C-9.54589844 36.63989258 -9.54589844 36.63989258 -9.609375 33.89453125 C-9.65771484 32.42016602 -9.65771484 32.42016602 -9.70703125 30.91601562 C-9.72121094 29.89185547 -9.73539063 28.86769531 -9.75 27.8125 C-9.77964844 26.77673828 -9.80929688 25.74097656 -9.83984375 24.67382812 C-9.91057245 22.11580688 -9.96325257 19.55869842 -10 17 C-10.639375 16.896875 -11.27875 16.79375 -11.9375 16.6875 C-12.618125 16.460625 -13.29875 16.23375 -14 16 C-15.09658936 12.71023192 -14.79953138 11.28696233 -14 8 C-12.35 7.67 -10.7 7.34 -9 7 C-9.33 5.02 -9.66 3.04 -10 1 C-6.52674819 -0.1577506 -3.63932552 -0.06866652 0 0 Z " fill="#054776" transform="translate(197,344)"/>
<path d="M0 0 C2.05078125 0.03255208 4.1015625 0.06510417 6.15234375 0.09765625 C6.48234375 0.75765625 6.81234375 1.41765625 7.15234375 2.09765625 C8.14234375 1.43765625 9.13234375 0.77765625 10.15234375 0.09765625 C13.33984375 -0.02734375 13.33984375 -0.02734375 16.15234375 0.09765625 C16.15234375 3.06765625 16.15234375 6.03765625 16.15234375 9.09765625 C15.03859375 9.34515625 13.92484375 9.59265625 12.77734375 9.84765625 C9.16527353 10.68575038 9.16527353 10.68575038 7.93579102 12.9074707 C7.10010988 15.24367994 6.93493224 16.91933444 6.9921875 19.390625 C7.00314453 20.18533203 7.01410156 20.98003906 7.02539062 21.79882812 C7.04666016 22.61931641 7.06792969 23.43980469 7.08984375 24.28515625 C7.15136363 27.22671777 7.17300733 30.15457274 7.15234375 33.09765625 C6.15234375 34.09765625 6.15234375 34.09765625 4.0859375 34.1953125 C3.26222656 34.18371094 2.43851562 34.17210937 1.58984375 34.16015625 C0.76355469 34.15113281 -0.06273437 34.14210938 -0.9140625 34.1328125 C-1.55214844 34.12121094 -2.19023437 34.10960937 -2.84765625 34.09765625 C-2.87230913 29.41626371 -2.89049364 24.73490866 -2.90258789 20.0534668 C-2.90762782 18.45971011 -2.91445975 16.86595806 -2.9230957 15.2722168 C-2.93517624 12.98615372 -2.9408878 10.70015158 -2.9453125 8.4140625 C-2.95047379 7.69738907 -2.95563507 6.98071564 -2.96095276 6.24232483 C-2.96114888 4.52701953 -2.90957632 2.81184359 -2.84765625 1.09765625 C-1.84765625 0.09765625 -1.84765625 0.09765625 0 0 Z " fill="#114C77" transform="translate(417.84765625,350.90234375)"/>
<path d="M0 0 C1.91015625 0.1328125 1.91015625 0.1328125 3.91015625 1.1328125 C4.90015625 0.8028125 5.89015625 0.4728125 6.91015625 0.1328125 C11.83596859 -0.27094261 14.00489536 -0.35214869 18.41015625 2.0078125 C19.64765625 3.0596875 19.64765625 3.0596875 20.91015625 4.1328125 C20.91015625 4.7928125 20.91015625 5.4528125 20.91015625 6.1328125 C17.03515625 4.2578125 17.03515625 4.2578125 15.91015625 3.1328125 C11.1779062 2.80038171 6.51727067 2.94387975 1.91015625 4.1328125 C1.91015625 3.4728125 1.91015625 2.8128125 1.91015625 2.1328125 C-0.39984375 2.1328125 -2.70984375 2.1328125 -5.08984375 2.1328125 C-5.08984375 5.7628125 -5.08984375 9.3928125 -5.08984375 13.1328125 C-7.45371025 8.40507951 -7.34378346 6.29625319 -7.08984375 1.1328125 C-5.19099279 -0.76603846 -2.51736472 0.00913744 0 0 Z " fill="#295373" transform="translate(443.08984375,350.8671875)"/>
<path d="M0 0 C1.65 0 3.3 0 5 0 C5 2.31 5 4.62 5 7 C6.299375 6.979375 7.59875 6.95875 8.9375 6.9375 C10.29165633 6.91600546 11.64756083 6.92851801 13 7 C14 8 14 8 14.09765625 9.84765625 C14.04882812 12.92382812 14.04882812 12.92382812 14 16 C11.03 16 8.06 16 5 16 C5 19.96 5 23.92 5 28 C4.67 28 4.34 28 4 28 C4 23.38 4 18.76 4 14 C6.64 14 9.28 14 12 14 C12 12.35 12 10.7 12 9 C9.36 9 6.72 9 4 9 C4 6.36 4 3.72 4 1 C2.68 0.67 1.36 0.34 0 0 Z " fill="#315B78" transform="translate(192,344)"/>
<path d="M0 0 C3.3 0 6.6 0 10 0 C10.83719383 2.29032311 11.6698929 4.58210957 12.5 6.875 C12.73847656 7.52597656 12.97695312 8.17695313 13.22265625 8.84765625 C15 13.7734375 15 13.7734375 15 16 C14.34 16 13.68 16 13 16 C12.32968281 14.0429132 11.66385317 12.08428887 11 10.125 C10.62875 9.03445313 10.2575 7.94390625 9.875 6.8203125 C9 4 9 4 9 2 C6.69 2 4.38 2 2 2 C2.33 4.31 2.66 6.62 3 9 C0.87491756 5.81237635 0.4979837 3.73487777 0 0 Z " fill="#2F5A77" transform="translate(79,351)"/>
<path d="M0 0 C0.66 0 1.32 0 2 0 C2 7.92 2 15.84 2 24 C1.34 24.33 0.68 24.66 0 25 C-0.66 24.34 -1.32 23.68 -2 23 C-1.34 23 -0.68 23 0 23 C0 15.41 0 7.82 0 0 Z " fill="#315E7C" transform="translate(482,361)"/>
<path d="M0 0 C2.05078125 0.03255208 4.1015625 0.06510417 6.15234375 0.09765625 C6.48234375 0.75765625 6.81234375 1.41765625 7.15234375 2.09765625 C4.51234375 2.09765625 1.87234375 2.09765625 -0.84765625 2.09765625 C-1.17765625 7.70765625 -1.50765625 13.31765625 -1.84765625 19.09765625 C-2.17765625 19.09765625 -2.50765625 19.09765625 -2.84765625 19.09765625 C-3.57496155 12.90996656 -4.17905951 7.22211126 -2.84765625 1.09765625 C-1.84765625 0.09765625 -1.84765625 0.09765625 0 0 Z " fill="#355B81" transform="translate(307.84765625,350.90234375)"/>
<path d="M0 0 C0.33 0.66 0.66 1.32 1 2 C0.34 2 -0.32 2 -1 2 C-1 3.65 -1 5.3 -1 7 C0.65 7.33 2.3 7.66 4 8 C4 15.26 4 22.52 4 30 C3.67 30 3.34 30 3 30 C2.67 23.4 2.34 16.8 2 10 C0.68 9.67 -0.64 9.34 -2 9 C-3.10102197 5.69693408 -2.95067299 4.28414305 -2 1 C-1.34 0.67 -0.68 0.34 0 0 Z " fill="#1C4A6A" transform="translate(185,351)"/>
<path d="M0 0 C0.99 0 1.98 0 3 0 C1.84826645 2.46800047 0.95216435 4.04783565 -1 6 C-0.76051177 10.94942337 -0.54583971 14.29999334 3 18 C1.0625 17.1875 1.0625 17.1875 -1 16 C-1.33 15.01 -1.66 14.02 -2 13 C-2.66 12.67 -3.32 12.34 -4 12 C-3.71788123 10.3733152 -3.42397625 8.74867104 -3.125 7.125 C-2.96257812 6.22007812 -2.80015625 5.31515625 -2.6328125 4.3828125 C-2 2 -2 2 0 0 Z " fill="#244E70" transform="translate(384,367)"/>
<path d="M0 0 C0.33 0 0.66 0 1 0 C1 6.27 1 12.54 1 19 C-1.97 19 -4.94 19 -8 19 C-8.66 18.34 -9.32 17.68 -10 17 C-9.01 16.34 -8.02 15.68 -7 15 C-7 15.66 -7 16.32 -7 17 C-4.69 17 -2.38 17 0 17 C0 11.39 0 5.78 0 0 Z " fill="#1B4863" transform="translate(362,367)"/>
<path d="M0 0 C0.33 0 0.66 0 1 0 C1.33 7.59 1.66 15.18 2 23 C0.68 23.33 -0.64 23.66 -2 24 C-2.99 23.34 -3.98 22.68 -5 22 C-3.35 22 -1.7 22 0 22 C0 14.74 0 7.48 0 0 Z " fill="#224966" transform="translate(178,362)"/>
<path d="M0 0 C-0.98076152 2.18785263 -1.70848526 3.75512761 -3.5625 5.3125 C-5.77817401 7.91350862 -5.6872065 10.6843889 -6 14 C-6.33 14 -6.66 14 -7 14 C-7.7833257 6.01007787 -7.7833257 6.01007787 -4.625 1.9375 C-2 0 -2 0 0 0 Z " fill="#255278" transform="translate(158,366)"/>
<path d="M0 0 C0.66 0.33 1.32 0.66 2 1 C1.04882866 2.1725131 0.08882991 3.33787015 -0.875 4.5 C-1.40867188 5.1496875 -1.94234375 5.799375 -2.4921875 6.46875 C-2.98976562 6.9740625 -3.48734375 7.479375 -4 8 C-4.66 8 -5.32 8 -6 8 C-4.73058503 4.08597051 -3.48832306 2.20927127 0 0 Z " fill="#1D5075" transform="translate(256,352)"/>
<path d="M0 0 C2.125 0.375 2.125 0.375 4 1 C3.01 1.495 3.01 1.495 2 2 C1.34444881 4.52733235 1.34444881 4.52733235 1 7 C2.98 7 4.96 7 7 7 C7 7.33 7 7.66 7 8 C4.69 8 2.38 8 0 8 C0 6.35 0 4.7 0 3 C-0.66 2.67 -1.32 2.34 -2 2 C-1.34 1.34 -0.68 0.68 0 0 Z " fill="#335772" transform="translate(82,392)"/>
<path d="M0 0 C0.66 0.33 1.32 0.66 2 1 C2 3.64 2 6.28 2 9 C1.01 9 0.02 9 -1 9 C-1.09765625 2.84765625 -1.09765625 2.84765625 -1 1 C-0.67 0.67 -0.34 0.34 0 0 Z " fill="#244E70" transform="translate(155,352)"/>
<path d="M0 0 C0 0.33 0 0.66 0 1 C-2.31 1.33 -4.62 1.66 -7 2 C-7 3.65 -7 5.3 -7 7 C-9 4 -9 4 -9 0 C-5.52176885 -1.15941038 -3.54104422 -0.70820884 0 0 Z " fill="#194260" transform="translate(196,345)"/>
<path d="M0 0 C2 1 2 1 2 1 Z " fill="#00007F" transform="translate(212,199)"/>
<path d="" fill="#000000" transform="translate(0,0)"/>
<path d="" fill="#000000" transform="translate(0,0)"/>
<path d="" fill="#000000" transform="translate(0,0)"/>
<path d="" fill="#000000" transform="translate(0,0)"/>
<path d="" fill="#000000" transform="translate(0,0)"/>
<path d="" fill="#0000FF" transform="translate(0,0)"/>
<path d="" fill="#00FFFF" transform="translate(0,0)"/>
<path d="" fill="#0000FF" transform="translate(0,0)"/>
<path d="" fill="#000000" transform="translate(0,0)"/>
<path d="" fill="#0000FF" transform="translate(0,0)"/>
<path d="" fill="#000000" transform="translate(0,0)"/>
</svg>
